<?xml version="1.0" standalone="no"?>
<!DOCTYPE svg PUBLIC "-//W3C//DTD SVG 20010904//EN"
 "http://www.w3.org/TR/2001/REC-SVG-20010904/DTD/svg10.dtd">
<svg version="1.0" xmlns="http://www.w3.org/2000/svg"
 width="148.000000pt" height="148.000000pt" viewBox="0 0 148.000000 148.000000"
 preserveAspectRatio="xMidYMid meet">
<metadata>
Created by potrace 1.11, written by Peter Selinger 2001-2013
</metadata>
<g transform="translate(0.000000,148.000000) scale(0.100000,-0.100000)"
fill="#000000" stroke="none">
<path d="M585 1433 c-150 -31 -263 -93 -374 -203 -87 -86 -140 -171 -178 -285
-23 -70 -27 -96 -27 -210 0 -114 4 -140 27 -210 15 -44 43 -109 64 -145 46
-78 168 -202 246 -249 248 -147 546 -147 794 0 78 47 200 171 246 249 21 36
49 101 64 145 23 70 27 96 27 210 0 114 -4 140 -27 210 -15 44 -43 109 -64
145 -46 78 -168 202 -246 249 -167 99 -369 133 -552 94z m335 -19 c248 -57
461 -264 526 -514 23 -86 23 -244 0 -330 -66 -251 -274 -454 -531 -516 -92
-22 -258 -22 -350 0 -257 62 -465 265 -531 516 -23 86 -23 244 0 330 75 285
318 493 626 533 55 8 188 -2 260 -19z"/>
<path d="M645 1369 c-266 -41 -486 -234 -550 -484 -19 -76 -19 -224 0 -300 28
-111 81 -202 169 -291 68 -68 96 -89 176 -127 112 -53 184 -70 300 -70 116 0
188 17 300 70 169 81 299 238 345 418 19 76 19 224 0 300 -44 174 -175 336
-335 413 -47 23 -110 48 -141 56 -77 19 -193 26 -264 15z m404 -313 c45 -24
51 -52 51 -229 0 -138 -3 -165 -18 -183 -33 -42 -50 -44 -342 -44 -298 0 -325
4 -350 49 -15 30 -12 340 4 370 27 48 42 50 344 51 226 0 289 -3 311 -14z m90
-583 l41 -68 -220 -3 c-121 -1 -319 -1 -440 0 l-220 3 41 68 40 67 359 0 359
0 40 -67z"/>
<path d="M450 1000 c-18 -18 -20 -33 -20 -163 0 -113 3 -147 16 -165 15 -22
17 -22 294 -22 277 0 279 0 294 22 13 18 16 52 16 165 0 199 28 183 -310 183
-257 0 -271 -1 -290 -20z"/>
</g>
</svg>
